# xmcd
#
# Track frame offsets: 
#        150
#        17735
#        38724
#        53553
#        67719
#        86530
#        102103
#        119719
#        134915
#        157512
#        172848
#        189779
#
# Disc length: 2764 seconds
#
# Revision: 0
# Processed by: cddbd v1.5.2PL0 Copyright (c) Steve Scherf et al.
# Submitted via: ExactAudioCopy v1.1
#
DISCID=890aca0c
DTITLE=Vince Gill - Down To My Last Bad Habit
DYEAR=2016
DGENRE=Country
TTITLE0=Reasons For The Tears I Cry
TTITLE1=Down To My Last Bad Habit
TTITLE2=Me And My Girl
TTITLE3=Like My Daddy Did
TTITLE4=Make You Feel Real Good
TTITLE5=I Can't Do This
TTITLE6=My Favorite Movie
TTITLE7=One More Mistake I Made
TTITLE8=Take Me Down
TTITLE9=I'll Be Waiting For You
TTITLE10=When It's Love
TTITLE11=Sad One Comin' On (A Song For George Jones)
EXTD=
EXTT0=
EXTT1=
EXTT2=
EXTT3=
EXTT4=
EXTT5=
EXTT6=
EXTT7=
EXTT8=
EXTT9=
EXTT10=
EXTT11=
PLAYORDER=
